<?xml version="1.0" encoding="iso-8859-1"?>
<!-- Generator: Adobe Illustrator 19.0.0, SVG Export Plug-In . SVG Version: 6.00 Build 0)  -->
<svg version="1.1" id="Capa_1" xmlns="http://www.w3.org/2000/svg" xmlns:xlink="http://www.w3.org/1999/xlink" x="0px" y="0px"
	 viewBox="0 0 512 512" style="enable-background:new 0 0 512 512;" xml:space="preserve">
<linearGradient id="SVGID_1_" gradientUnits="userSpaceOnUse" x1="197.3891" y1="316.9635" x2="725.5691" y2="-211.2165" gradientTransform="matrix(1.0039 0 0 -1.0039 0.1922 516.5609)">
	<stop  offset="0" style="stop-color:#FCC344"/>
	<stop  offset="1" style="stop-color:#D48000"/>
</linearGradient>
<path style="fill:url(#SVGID_1_);" d="M420.725,511.998H91.275c-34.921,0-63.23-28.31-63.23-63.23V63.23
	C28.045,28.31,56.353,0,91.275,0h329.451c34.921,0,63.23,28.31,63.23,63.23v385.537
	C483.955,483.688,455.647,511.998,420.725,511.998z"/>
<linearGradient id="SVGID_2_" gradientUnits="userSpaceOnUse" x1="254.8086" y1="53.893" x2="254.8086" y2="-9.727" gradientTransform="matrix(1.0039 0 0 -1.0039 0.1922 516.5609)">
	<stop  offset="0" style="stop-color:#D48000;stop-opacity:0"/>
	<stop  offset="1" style="stop-color:#D48000"/>
</linearGradient>
<path style="fill:url(#SVGID_2_);" d="M28.045,421.046v27.721c0,34.921,28.31,63.23,63.23,63.23h329.451
	c34.921,0,63.23-28.31,63.23-63.23v-27.721H28.045z"/>
<linearGradient id="SVGID_3_" gradientUnits="userSpaceOnUse" x1="254.8086" y1="398.063" x2="254.8086" y2="289.063" gradientTransform="matrix(1.0039 0 0 -1.0039 0.1922 516.5609)">
	<stop  offset="0" style="stop-color:#4D4D4D"/>
	<stop  offset="1" style="stop-color:#333333"/>
</linearGradient>
<path style="fill:url(#SVGID_3_);" d="M420.725,0H91.275c-34.921,0-63.23,28.31-63.23,63.23v126.441h455.911V63.23
	C483.955,28.31,455.647,0,420.725,0z"/>
<linearGradient id="SVGID_4_" gradientUnits="userSpaceOnUse" x1="254.8081" y1="436.773" x2="254.8081" y2="361.363" gradientTransform="matrix(1.0039 0 0 -1.0039 0.1922 516.5609)">
	<stop  offset="0" style="stop-color:#FFF2EB"/>
	<stop  offset="1" style="stop-color:#F1DACB"/>
</linearGradient>
<path style="fill:url(#SVGID_4_);" d="M411.57,144.753H100.43c-14.169,0-25.655-11.486-25.655-25.655V59.176
	c0-14.169,11.486-25.655,25.655-25.655h311.138c14.169,0,25.655,11.486,25.655,25.655v59.921
	C437.225,133.267,425.738,144.753,411.57,144.753z"/>
<g>
	
		<linearGradient id="SVGID_5_" gradientUnits="userSpaceOnUse" x1="244.6216" y1="441.605" x2="244.6216" y2="333.683" gradientTransform="matrix(1.0039 0 0 -1.0039 0.1922 516.5609)">
		<stop  offset="0" style="stop-color:#4D4D4D"/>
		<stop  offset="1" style="stop-color:#333333"/>
	</linearGradient>
	<path style="fill:url(#SVGID_5_);" d="M245.084,64.947l-3.714,4.668c-0.743,0.743-1.698,1.061-2.334,1.061
		c-2.228,0-3.82-2.334-3.82-4.563c0-1.591,0.848-3.395,2.228-4.35l11.034-10.61c0.743-0.743,1.591-1.167,2.864-1.167
		c2.334,0,4.986,1.378,4.986,3.714v70.236c0,2.441-2.864,3.714-5.623,3.714c-2.864,0-5.623-1.273-5.623-3.714V64.947H245.084z"/>
	
		<linearGradient id="SVGID_6_" gradientUnits="userSpaceOnUse" x1="287.9006" y1="441.605" x2="287.9006" y2="333.683" gradientTransform="matrix(1.0039 0 0 -1.0039 0.1922 516.5609)">
		<stop  offset="0" style="stop-color:#4D4D4D"/>
		<stop  offset="1" style="stop-color:#333333"/>
	</linearGradient>
	<path style="fill:url(#SVGID_6_);" d="M289.222,50.093c12.307,0,22.706,8.382,22.706,21.113c0,22.811-34.376,30.238-34.376,42.44
		v4.032h31.193c1.909,0,3.714,2.228,3.714,4.881c0,2.652-1.804,5.092-3.714,5.092h-37.772c-2.122,0-4.986-1.485-4.986-3.714v-10.291
		c0-17.188,34.695-25.783,34.695-42.122c0-5.199-3.395-11.141-11.459-11.141c-5.941,0-10.716,3.29-10.716,10.504
		c0,2.122-2.228,4.245-5.942,4.245c-2.971,0-5.093-1.486-5.093-6.259C267.471,57.52,277.657,50.093,289.222,50.093z"/>
	
		<linearGradient id="SVGID_7_" gradientUnits="userSpaceOnUse" x1="340.1616" y1="441.605" x2="340.1616" y2="333.683" gradientTransform="matrix(1.0039 0 0 -1.0039 0.1922 516.5609)">
		<stop  offset="0" style="stop-color:#4D4D4D"/>
		<stop  offset="1" style="stop-color:#333333"/>
	</linearGradient>
	<path style="fill:url(#SVGID_7_);" d="M354.262,105.158v-2.015c0-8.488-5.199-11.565-12.945-11.565
		c-2.652,0-3.607-2.228-3.607-4.455c0-2.334,0.955-4.563,3.607-4.563c6.472,0,11.034-2.015,11.034-11.671
		c0-7.745-3.714-10.928-10.61-10.928c-8.594,0-11.034,4.35-11.034,8.7c0,2.759-1.273,4.563-5.305,4.563
		c-4.986,0-5.836-1.168-5.836-5.199c0-6.896,4.775-17.931,22.281-17.931c12.413,0,21.325,4.881,21.325,18.886
		c0,8.806-3.395,15.279-8.488,17.718c6.259,2.441,10.822,7.427,10.822,16.445v2.015c0,16.87-10.822,23.129-24.191,23.129
		c-16.552,0-23.448-10.291-23.448-18.673c0-3.714,1.379-4.775,5.198-4.775c4.668,0,5.836,1.379,5.836,4.245
		c0,4.668,3.925,9.231,12.52,9.231C350.124,118.314,354.262,114.389,354.262,105.158z"/>
	
		<linearGradient id="SVGID_8_" gradientUnits="userSpaceOnUse" x1="393.0586" y1="441.605" x2="393.0586" y2="333.683" gradientTransform="matrix(1.0039 0 0 -1.0039 0.1922 516.5609)">
		<stop  offset="0" style="stop-color:#4D4D4D"/>
		<stop  offset="1" style="stop-color:#333333"/>
	</linearGradient>
	<path style="fill:url(#SVGID_8_);" d="M399.672,110.251h-26.1c-2.228,0-3.925-1.591-3.925-4.138c0-0.743,0.212-1.592,0.636-2.334
		L395.96,53.17c1.168-2.228,3.077-3.077,4.88-3.077c2.122,0,5.623,1.698,5.623,4.35c0,0.531-0.212,1.061-0.53,1.698l-21.856,43.606
		h15.597V85.105c0-2.652,2.759-3.714,5.623-3.714c2.759,0,5.623,1.061,5.623,3.714v14.641h5.198c2.546,0,3.82,2.652,3.82,5.305
		c0,2.546-1.804,5.199-3.82,5.199h-5.198v13.686c0,2.441-2.864,3.714-5.623,3.714c-2.864,0-5.623-1.273-5.623-3.714v-13.686H399.672
		z"/>
</g>
<linearGradient id="SVGID_9_" gradientUnits="userSpaceOnUse" x1="254.8086" y1="463.263" x2="254.8086" y2="500.609" gradientTransform="matrix(1.0039 0 0 -1.0039 0.1922 516.5609)">
	<stop  offset="0" style="stop-color:#D3B4A0;stop-opacity:0"/>
	<stop  offset="1" style="stop-color:#D3B4A0"/>
</linearGradient>
<path style="fill:url(#SVGID_9_);" d="M411.57,33.521H100.43c-14.169,0-25.655,11.486-25.655,25.655V80.96h362.45V59.176
	C437.225,45.008,425.738,33.521,411.57,33.521z"/>
<linearGradient id="SVGID_10_" gradientUnits="userSpaceOnUse" x1="162.5159" y1="231.6202" x2="72.2658" y2="321.8702" gradientTransform="matrix(1.0039 0 0 -1.0039 0.1922 516.5609)">
	<stop  offset="0" style="stop-color:#D48000;stop-opacity:0"/>
	<stop  offset="1" style="stop-color:#D48000"/>
</linearGradient>
<path style="fill:url(#SVGID_10_);" d="M153.286,222.82c-3.974-4.259-9.618-6.937-15.901-6.937H96.541
	c-12.021,0-21.766,9.745-21.766,21.766l0,0c0,6.284,2.678,11.929,6.937,15.901l53.625,53.626c3.974,4.259,9.618,6.937,15.901,6.937
	h40.844c12.021,0,21.766-9.745,21.766-21.766l0,0c0-6.284-2.678-11.929-6.937-15.901L153.286,222.82z"/>
<linearGradient id="SVGID_11_" gradientUnits="userSpaceOnUse" x1="301.0079" y1="231.6222" x2="210.7578" y2="321.8723" gradientTransform="matrix(1.0039 0 0 -1.0039 0.1922 516.5609)">
	<stop  offset="0" style="stop-color:#D48000;stop-opacity:0"/>
	<stop  offset="1" style="stop-color:#D48000"/>
</linearGradient>
<path style="fill:url(#SVGID_11_);" d="M292.323,222.82c-3.974-4.259-9.618-6.937-15.901-6.937h-40.844
	c-12.021,0-21.766,9.745-21.766,21.766l0,0c0,6.284,2.678,11.929,6.937,15.901l53.626,53.626c3.974,4.259,9.618,6.937,15.901,6.937
	h40.844c12.021,0,21.766-9.745,21.766-21.766l0,0c0-6.284-2.678-11.929-6.937-15.901L292.323,222.82z"/>
<g>
	
		<linearGradient id="SVGID_12_" gradientUnits="userSpaceOnUse" x1="116.3146" y1="272.773" x2="116.3146" y2="247.753" gradientTransform="matrix(1.0039 0 0 -1.0039 0.1922 516.5609)">
		<stop  offset="0" style="stop-color:#FFF2EB"/>
		<stop  offset="1" style="stop-color:#F1DACB"/>
	</linearGradient>
	<path style="fill:url(#SVGID_12_);" d="M137.385,259.415H96.541c-12.021,0-21.766-9.745-21.766-21.766l0,0
		c0-12.021,9.745-21.766,21.766-21.766h40.844c12.021,0,21.766,9.745,21.766,21.766l0,0
		C159.151,249.67,149.406,259.415,137.385,259.415z"/>
	
		<linearGradient id="SVGID_13_" gradientUnits="userSpaceOnUse" x1="254.8086" y1="272.773" x2="254.8086" y2="247.753" gradientTransform="matrix(1.0039 0 0 -1.0039 0.1922 516.5609)">
		<stop  offset="0" style="stop-color:#FFF2EB"/>
		<stop  offset="1" style="stop-color:#F1DACB"/>
	</linearGradient>
	<path style="fill:url(#SVGID_13_);" d="M276.422,259.415h-40.844c-12.021,0-21.766-9.745-21.766-21.766l0,0
		c0-12.021,9.745-21.766,21.766-21.766h40.844c12.021,0,21.766,9.745,21.766,21.766l0,0
		C298.188,249.67,288.443,259.415,276.422,259.415z"/>
</g>
<linearGradient id="SVGID_14_" gradientUnits="userSpaceOnUse" x1="439.4483" y1="231.6727" x2="349.2583" y2="321.8627" gradientTransform="matrix(1.0039 0 0 -1.0039 0.1922 516.5609)">
	<stop  offset="0" style="stop-color:#D48000;stop-opacity:0"/>
	<stop  offset="1" style="stop-color:#D48000"/>
</linearGradient>
<path style="fill:url(#SVGID_14_);" d="M483.955,275.416v33.76c-3.762,3.077-8.571,4.935-13.803,4.935h-40.839
	c-6.281,0-11.934-2.678-15.9-6.93l-53.626-53.626c-1.596-1.493-2.975-3.215-4.069-5.118c-0.183-0.319-0.353-0.65-0.524-0.969
	c-0.171-0.33-0.33-0.662-0.479-1.003c-0.149-0.33-0.296-0.673-0.422-1.026c-0.125-0.33-0.251-0.661-0.364-1.003
	c-0.011-0.023-0.011-0.045-0.023-0.068c-0.102-0.342-0.217-0.696-0.308-1.048c-0.102-0.364-0.183-0.73-0.262-1.094
	c-0.057-0.262-0.114-0.535-0.16-0.809c-0.091-0.513-0.16-1.026-0.217-1.55c-0.079-0.73-0.114-1.471-0.114-2.223
	c0-6.006,2.44-11.443,6.372-15.387c3.943-3.932,9.392-6.371,15.398-6.371h40.839c0.752,0,1.493,0.034,2.223,0.114
	c0.524,0.057,1.037,0.125,1.55,0.217c0.273,0.045,0.547,0.102,0.809,0.16c0.364,0.08,0.73,0.16,1.094,0.262
	c0.353,0.091,0.707,0.205,1.048,0.308c0.023,0.011,0.045,0.011,0.068,0.023c0.342,0.114,0.673,0.239,1.003,0.364
	c0.353,0.125,0.684,0.273,1.026,0.422c2.689,1.208,5.095,2.94,7.078,5.061l0.353,0.353L483.955,275.416z"/>
<linearGradient id="SVGID_15_" gradientUnits="userSpaceOnUse" x1="393.3026" y1="272.773" x2="393.3026" y2="247.753" gradientTransform="matrix(1.0039 0 0 -1.0039 0.1922 516.5609)">
	<stop  offset="0" style="stop-color:#FFF2EB"/>
	<stop  offset="1" style="stop-color:#F1DACB"/>
</linearGradient>
<path style="fill:url(#SVGID_15_);" d="M415.459,259.415h-40.844c-12.021,0-21.766-9.745-21.766-21.766l0,0
	c0-12.021,9.745-21.766,21.766-21.766h40.844c12.021,0,21.766,9.745,21.766,21.766l0,0
	C437.225,249.67,427.48,259.415,415.459,259.415z"/>
<linearGradient id="SVGID_16_" gradientUnits="userSpaceOnUse" x1="162.5169" y1="156.2212" x2="72.2669" y2="246.4712" gradientTransform="matrix(1.0039 0 0 -1.0039 0.1922 516.5609)">
	<stop  offset="0" style="stop-color:#D48000;stop-opacity:0"/>
	<stop  offset="1" style="stop-color:#D48000"/>
</linearGradient>
<path style="fill:url(#SVGID_16_);" d="M153.286,298.514c-3.974-4.259-9.618-6.937-15.901-6.937H96.541
	c-12.021,0-21.766,9.745-21.766,21.766l0,0c0,6.284,2.678,11.929,6.937,15.901l53.625,53.626c3.974,4.259,9.618,6.937,15.901,6.937
	h40.844c12.021,0,21.766-9.745,21.766-21.766l0,0c0-6.284-2.678-11.929-6.937-15.901L153.286,298.514z"/>
<linearGradient id="SVGID_17_" gradientUnits="userSpaceOnUse" x1="301.0089" y1="156.2232" x2="210.7589" y2="246.4732" gradientTransform="matrix(1.0039 0 0 -1.0039 0.1922 516.5609)">
	<stop  offset="0" style="stop-color:#D48000;stop-opacity:0"/>
	<stop  offset="1" style="stop-color:#D48000"/>
</linearGradient>
<path style="fill:url(#SVGID_17_);" d="M292.323,298.514c-3.974-4.259-9.618-6.937-15.901-6.937h-40.844
	c-12.021,0-21.766,9.745-21.766,21.766l0,0c0,6.284,2.678,11.929,6.937,15.901l53.626,53.626c3.974,4.259,9.618,6.937,15.901,6.937
	h40.844c12.021,0,21.766-9.745,21.766-21.766l0,0c0-6.284-2.678-11.929-6.937-15.901L292.323,298.514z"/>
<g>
	
		<linearGradient id="SVGID_18_" gradientUnits="userSpaceOnUse" x1="116.3146" y1="197.373" x2="116.3146" y2="172.353" gradientTransform="matrix(1.0039 0 0 -1.0039 0.1922 516.5609)">
		<stop  offset="0" style="stop-color:#FFF2EB"/>
		<stop  offset="1" style="stop-color:#F1DACB"/>
	</linearGradient>
	<path style="fill:url(#SVGID_18_);" d="M137.385,335.109H96.541c-12.021,0-21.766-9.745-21.766-21.766l0,0
		c0-12.021,9.745-21.766,21.766-21.766h40.844c12.021,0,21.766,9.745,21.766,21.766l0,0
		C159.151,325.364,149.406,335.109,137.385,335.109z"/>
	
		<linearGradient id="SVGID_19_" gradientUnits="userSpaceOnUse" x1="254.8086" y1="197.373" x2="254.8086" y2="172.353" gradientTransform="matrix(1.0039 0 0 -1.0039 0.1922 516.5609)">
		<stop  offset="0" style="stop-color:#FFF2EB"/>
		<stop  offset="1" style="stop-color:#F1DACB"/>
	</linearGradient>
	<path style="fill:url(#SVGID_19_);" d="M276.422,335.109h-40.844c-12.021,0-21.766-9.745-21.766-21.766l0,0
		c0-12.021,9.745-21.766,21.766-21.766h40.844c12.021,0,21.766,9.745,21.766,21.766l0,0
		C298.188,325.364,288.443,335.109,276.422,335.109z"/>
</g>
<linearGradient id="SVGID_20_" gradientUnits="userSpaceOnUse" x1="439.4479" y1="156.2723" x2="349.2579" y2="246.4623" gradientTransform="matrix(1.0039 0 0 -1.0039 0.1922 516.5609)">
	<stop  offset="0" style="stop-color:#D48000;stop-opacity:0"/>
	<stop  offset="1" style="stop-color:#D48000"/>
</linearGradient>
<path style="fill:url(#SVGID_20_);" d="M483.955,351.109v33.76c-3.762,3.077-8.571,4.935-13.803,4.935h-40.839
	c-6.281,0-11.934-2.678-15.9-6.93l-53.284-53.284l-0.342-0.342c-2.131-1.983-3.864-4.399-5.072-7.09
	c-0.149-0.342-0.296-0.673-0.422-1.026c-0.137-0.341-0.262-0.695-0.376-1.048c-0.114-0.353-0.217-0.707-0.319-1.071
	c-0.102-0.353-0.183-0.73-0.262-1.094c-0.068-0.319-0.137-0.638-0.183-0.969c-0.091-0.456-0.149-0.912-0.194-1.379
	c-0.079-0.729-0.114-1.471-0.114-2.223c0-6.006,2.44-11.455,6.372-15.398c3.943-3.932,9.392-6.372,15.398-6.372h40.839
	c0.752,0,1.493,0.034,2.223,0.114c0.524,0.057,1.037,0.125,1.55,0.217c0.273,0.045,0.547,0.102,0.809,0.16
	c0.364,0.08,0.73,0.16,1.094,0.262c0.353,0.091,0.707,0.205,1.048,0.307c0.023,0.012,0.045,0.012,0.068,0.023
	c0.342,0.114,0.673,0.24,1.003,0.364c0.353,0.125,0.684,0.273,1.026,0.422c2.689,1.208,5.095,2.94,7.078,5.072l0.422,0.422
	l15.17,15.17L483.955,351.109z"/>
<linearGradient id="SVGID_21_" gradientUnits="userSpaceOnUse" x1="393.3026" y1="197.373" x2="393.3026" y2="172.353" gradientTransform="matrix(1.0039 0 0 -1.0039 0.1922 516.5609)">
	<stop  offset="0" style="stop-color:#FFF2EB"/>
	<stop  offset="1" style="stop-color:#F1DACB"/>
</linearGradient>
<path style="fill:url(#SVGID_21_);" d="M415.459,335.109h-40.844c-12.021,0-21.766-9.745-21.766-21.766l0,0
	c0-12.021,9.745-21.766,21.766-21.766h40.844c12.021,0,21.766,9.745,21.766,21.766l0,0
	C437.225,325.364,427.48,335.109,415.459,335.109z"/>
<linearGradient id="SVGID_22_" gradientUnits="userSpaceOnUse" x1="162.5179" y1="80.8222" x2="72.2678" y2="171.0722" gradientTransform="matrix(1.0039 0 0 -1.0039 0.1922 516.5609)">
	<stop  offset="0" style="stop-color:#D48000;stop-opacity:0"/>
	<stop  offset="1" style="stop-color:#D48000"/>
</linearGradient>
<path style="fill:url(#SVGID_22_);" d="M153.286,374.208c-3.974-4.259-9.618-6.937-15.901-6.937H96.541
	c-12.021,0-21.766,9.745-21.766,21.766l0,0c0,6.284,2.678,11.929,6.937,15.901l53.625,53.626c3.974,4.259,9.618,6.937,15.901,6.937
	h40.844c12.021,0,21.766-9.745,21.766-21.766l0,0c0-6.284-2.678-11.929-6.937-15.901L153.286,374.208z"/>
<linearGradient id="SVGID_23_" gradientUnits="userSpaceOnUse" x1="301.0099" y1="80.8242" x2="210.7599" y2="171.0742" gradientTransform="matrix(1.0039 0 0 -1.0039 0.1922 516.5609)">
	<stop  offset="0" style="stop-color:#D48000;stop-opacity:0"/>
	<stop  offset="1" style="stop-color:#D48000"/>
</linearGradient>
<path style="fill:url(#SVGID_23_);" d="M292.323,374.208c-3.974-4.259-9.618-6.937-15.901-6.937h-40.844
	c-12.021,0-21.766,9.745-21.766,21.766l0,0c0,6.284,2.678,11.929,6.937,15.901l53.626,53.626c3.974,4.259,9.618,6.937,15.901,6.937
	h40.844c12.021,0,21.766-9.745,21.766-21.766l0,0c0-6.284-2.678-11.929-6.937-15.901L292.323,374.208z"/>
<g>
	
		<linearGradient id="SVGID_24_" gradientUnits="userSpaceOnUse" x1="116.3146" y1="121.973" x2="116.3146" y2="96.953" gradientTransform="matrix(1.0039 0 0 -1.0039 0.1922 516.5609)">
		<stop  offset="0" style="stop-color:#FFF2EB"/>
		<stop  offset="1" style="stop-color:#F1DACB"/>
	</linearGradient>
	<path style="fill:url(#SVGID_24_);" d="M137.385,410.803H96.541c-12.021,0-21.766-9.745-21.766-21.766l0,0
		c0-12.021,9.745-21.766,21.766-21.766h40.844c12.021,0,21.766,9.745,21.766,21.766l0,0
		C159.151,401.058,149.406,410.803,137.385,410.803z"/>
	
		<linearGradient id="SVGID_25_" gradientUnits="userSpaceOnUse" x1="254.8086" y1="121.973" x2="254.8086" y2="96.953" gradientTransform="matrix(1.0039 0 0 -1.0039 0.1922 516.5609)">
		<stop  offset="0" style="stop-color:#FFF2EB"/>
		<stop  offset="1" style="stop-color:#F1DACB"/>
	</linearGradient>
	<path style="fill:url(#SVGID_25_);" d="M276.422,410.803h-40.844c-12.021,0-21.766-9.745-21.766-21.766l0,0
		c0-12.021,9.745-21.766,21.766-21.766h40.844c12.021,0,21.766,9.745,21.766,21.766l0,0
		C298.188,401.058,288.443,410.803,276.422,410.803z"/>
</g>
<linearGradient id="SVGID_26_" gradientUnits="userSpaceOnUse" x1="439.345" y1="80.9793" x2="349.285" y2="171.0393" gradientTransform="matrix(1.0039 0 0 -1.0039 0.1922 516.5609)">
	<stop  offset="0" style="stop-color:#D48000;stop-opacity:0"/>
	<stop  offset="1" style="stop-color:#D48000"/>
</linearGradient>
<path style="fill:url(#SVGID_26_);" d="M483.955,426.813v21.952c0,4.376-0.445,8.651-1.299,12.777v0.011
	c-3.533,2.485-7.853,3.943-12.503,3.943h-40.839c-6.281,0-11.934-2.678-15.9-6.93l-53.626-53.626
	c-1.596-1.493-2.975-3.215-4.069-5.118c-0.183-0.319-0.353-0.65-0.524-0.969c-0.171-0.33-0.33-0.662-0.479-1.003
	c-0.149-0.33-0.296-0.673-0.422-1.026c-0.137-0.342-0.262-0.695-0.376-1.048c-0.114-0.353-0.217-0.707-0.319-1.071
	c-0.102-0.353-0.183-0.718-0.262-1.083c-0.057-0.273-0.114-0.536-0.16-0.809c-0.091-0.513-0.16-1.026-0.217-1.55
	c-0.079-0.73-0.114-1.471-0.114-2.223c0-6.017,2.44-11.455,6.372-15.398c3.943-3.932,9.392-6.371,15.398-6.371h40.839
	c0.752,0,1.493,0.034,2.223,0.113c0.524,0.057,1.037,0.125,1.55,0.217c0.273,0.045,0.547,0.102,0.809,0.16
	c0.364,0.08,0.73,0.16,1.094,0.262c0.353,0.091,0.707,0.205,1.048,0.308c0.023,0.011,0.045,0.011,0.068,0.023
	c0.342,0.114,0.673,0.239,1.003,0.364c0.353,0.125,0.684,0.274,1.026,0.422c2.689,1.209,5.095,2.94,7.078,5.072l0.422,0.422
	l15.17,15.17L483.955,426.813z"/>
<linearGradient id="SVGID_27_" gradientUnits="userSpaceOnUse" x1="393.3026" y1="121.973" x2="393.3026" y2="96.953" gradientTransform="matrix(1.0039 0 0 -1.0039 0.1922 516.5609)">
	<stop  offset="0" style="stop-color:#FFF2EB"/>
	<stop  offset="1" style="stop-color:#F1DACB"/>
</linearGradient>
<path style="fill:url(#SVGID_27_);" d="M415.459,410.803h-40.844c-12.021,0-21.766-9.745-21.766-21.766l0,0
	c0-12.021,9.745-21.766,21.766-21.766h40.844c12.021,0,21.766,9.745,21.766,21.766l0,0
	C437.225,401.058,427.48,410.803,415.459,410.803z"/>
<linearGradient id="SVGID_28_" gradientUnits="userSpaceOnUse" x1="156.499" y1="11.4434" x2="73.819" y2="94.1234" gradientTransform="matrix(1.0039 0 0 -1.0039 0.1922 516.5609)">
	<stop  offset="0" style="stop-color:#D48000;stop-opacity:0"/>
	<stop  offset="1" style="stop-color:#D48000"/>
</linearGradient>
<path style="fill:url(#SVGID_28_);" d="M212.529,512h-99.445l-31.025-31.025l-0.342-0.342c-2.131-1.983-3.864-4.399-5.072-7.09
	c-0.149-0.342-0.296-0.673-0.422-1.026c-0.137-0.342-0.262-0.695-0.376-1.048c-0.114-0.353-0.217-0.707-0.319-1.071
	c-0.102-0.353-0.183-0.73-0.262-1.094c-0.068-0.319-0.137-0.638-0.183-0.969c-0.091-0.456-0.149-0.912-0.194-1.379
	c-0.079-0.729-0.114-1.471-0.114-2.223c0-6.006,2.44-11.455,6.372-15.398c3.943-3.932,9.381-6.372,15.398-6.372h40.839
	c0.752,0,1.493,0.034,2.223,0.114c0.467,0.045,0.924,0.102,1.379,0.194c0.33,0.045,0.65,0.114,0.969,0.183
	c0.376,0.08,0.741,0.16,1.094,0.262c0.364,0.091,0.707,0.205,1.06,0.307c0.023,0.011,0.045,0.011,0.068,0.023
	c0.342,0.114,0.673,0.24,1.003,0.364c0.342,0.125,0.684,0.273,1.026,0.422c0.33,0.148,0.673,0.308,0.992,0.479
	c0.33,0.171,0.65,0.341,0.969,0.524c1.903,1.094,3.636,2.474,5.118,4.069l53.626,53.626c2.131,1.983,3.864,4.388,5.072,7.078
	C212.187,511.065,212.37,511.533,212.529,512z"/>
<linearGradient id="SVGID_29_" gradientUnits="userSpaceOnUse" x1="294.9885" y1="11.4429" x2="212.3085" y2="94.1229" gradientTransform="matrix(1.0039 0 0 -1.0039 0.1922 516.5609)">
	<stop  offset="0" style="stop-color:#D48000;stop-opacity:0"/>
	<stop  offset="1" style="stop-color:#D48000"/>
</linearGradient>
<path style="fill:url(#SVGID_29_);" d="M351.559,512h-99.445l-31.093-31.093c-0.023-0.023-0.045-0.045-0.079-0.068l-0.194-0.205
	c-0.798-0.741-1.539-1.55-2.223-2.405c-0.228-0.285-0.445-0.581-0.662-0.877c-0.205-0.296-0.411-0.592-0.615-0.901
	c-0.194-0.308-0.388-0.626-0.57-0.946c-0.364-0.638-0.696-1.288-0.992-1.961c-0.149-0.342-0.296-0.673-0.422-1.026
	c-0.137-0.342-0.262-0.695-0.376-1.048c-0.113-0.353-0.217-0.707-0.319-1.071c-0.102-0.353-0.183-0.73-0.262-1.094
	c-0.068-0.319-0.137-0.638-0.183-0.969c-0.091-0.456-0.149-0.912-0.194-1.379c-0.079-0.729-0.114-1.471-0.114-2.223
	c0-6.006,2.44-11.455,6.371-15.398c3.943-3.932,9.381-6.372,15.387-6.372h40.85c0.752,0,1.493,0.034,2.223,0.114
	c0.524,0.057,1.037,0.125,1.55,0.217c0.273,0.045,0.536,0.102,0.809,0.16c0.364,0.08,0.73,0.16,1.083,0.262
	c0.364,0.102,0.718,0.205,1.071,0.319c0.353,0.114,0.707,0.239,1.048,0.376c0.353,0.125,0.696,0.273,1.026,0.422
	c0.342,0.148,0.673,0.308,1.003,0.479c0.319,0.171,0.65,0.341,0.969,0.524c1.903,1.094,3.624,2.474,5.118,4.069l53.626,53.626
	c2.12,1.983,3.852,4.388,5.061,7.078C351.217,511.065,351.4,511.533,351.559,512z"/>
<g>
	
		<linearGradient id="SVGID_30_" gradientUnits="userSpaceOnUse" x1="116.3146" y1="46.573" x2="116.3146" y2="21.563" gradientTransform="matrix(1.0039 0 0 -1.0039 0.1922 516.5609)">
		<stop  offset="0" style="stop-color:#FFF2EB"/>
		<stop  offset="1" style="stop-color:#F1DACB"/>
	</linearGradient>
	<path style="fill:url(#SVGID_30_);" d="M137.385,486.496H96.541c-12.021,0-21.766-9.745-21.766-21.766l0,0
		c0-12.021,9.745-21.766,21.766-21.766h40.844c12.021,0,21.766,9.745,21.766,21.766l0,0
		C159.151,476.751,149.406,486.496,137.385,486.496z"/>
	
		<linearGradient id="SVGID_31_" gradientUnits="userSpaceOnUse" x1="254.8086" y1="46.573" x2="254.8086" y2="21.563" gradientTransform="matrix(1.0039 0 0 -1.0039 0.1922 516.5609)">
		<stop  offset="0" style="stop-color:#FFF2EB"/>
		<stop  offset="1" style="stop-color:#F1DACB"/>
	</linearGradient>
	<path style="fill:url(#SVGID_31_);" d="M276.422,486.496h-40.844c-12.021,0-21.766-9.745-21.766-21.766l0,0
		c0-12.021,9.745-21.766,21.766-21.766h40.844c12.021,0,21.766,9.745,21.766,21.766l0,0
		C298.188,476.751,288.443,486.496,276.422,486.496z"/>
</g>
<linearGradient id="SVGID_32_" gradientUnits="userSpaceOnUse" x1="418.6889" y1="26.2333" x2="354.6289" y2="90.3033" gradientTransform="matrix(1.0039 0 0 -1.0039 0.1922 516.5609)">
	<stop  offset="0" style="stop-color:#D48000;stop-opacity:0"/>
	<stop  offset="1" style="stop-color:#D48000"/>
</linearGradient>
<path style="fill:url(#SVGID_32_);" d="M469.925,488.475C458.333,502.825,440.598,512,420.72,512h-29.565l-31.367-31.366
	c-2.131-1.983-3.864-4.399-5.072-7.09c-0.149-0.342-0.296-0.673-0.422-1.026c-0.137-0.342-0.262-0.695-0.376-1.048
	c-0.114-0.353-0.217-0.707-0.319-1.071c-0.102-0.353-0.183-0.73-0.262-1.094c-0.068-0.319-0.137-0.638-0.183-0.969
	c-0.091-0.456-0.149-0.912-0.194-1.379c-0.079-0.729-0.114-1.471-0.114-2.223c0-6.006,2.44-11.455,6.372-15.398
	c3.943-3.932,9.392-6.372,15.398-6.372h40.839c0.752,0,1.493,0.034,2.223,0.114c0.524,0.057,1.037,0.125,1.55,0.217
	c0.273,0.045,0.547,0.102,0.809,0.16c0.364,0.08,0.73,0.16,1.094,0.262c0.353,0.091,0.707,0.205,1.048,0.307
	c0.023,0.011,0.045,0.011,0.068,0.023c0.342,0.114,0.673,0.24,1.003,0.364c0.353,0.126,0.684,0.273,1.026,0.422
	c2.689,1.208,5.095,2.94,7.078,5.072l0.422,0.422l15.17,15.17L469.925,488.475z"/>
<linearGradient id="SVGID_33_" gradientUnits="userSpaceOnUse" x1="393.3026" y1="46.573" x2="393.3026" y2="21.563" gradientTransform="matrix(1.0039 0 0 -1.0039 0.1922 516.5609)">
	<stop  offset="0" style="stop-color:#FE7695"/>
	<stop  offset="1" style="stop-color:#FE547B"/>
</linearGradient>
<path style="fill:url(#SVGID_33_);" d="M415.459,486.496h-40.844c-12.021,0-21.766-9.745-21.766-21.766l0,0
	c0-12.021,9.745-21.766,21.766-21.766h40.844c12.021,0,21.766,9.745,21.766,21.766l0,0
	C437.225,476.751,427.48,486.496,415.459,486.496z"/>
<g>
</g>
<g>
</g>
<g>
</g>
<g>
</g>
<g>
</g>
<g>
</g>
<g>
</g>
<g>
</g>
<g>
</g>
<g>
</g>
<g>
</g>
<g>
</g>
<g>
</g>
<g>
</g>
<g>
</g>
</svg>
